<svg data-v-423bf9ae="" xmlns="http://www.w3.org/2000/svg" viewBox="0 0 101.29230205829327 60" class="font"><!----><!----><!----><g data-v-423bf9ae="" id="e21a9bdf-21eb-4a9f-8cd3-2ba0f53ff3a3" fill="black" transform="matrix(6.153846153846154,0,0,6.153846153846154,-7.200000909658584,-22.092308631310097)"><path d="M4.32 3.82L1.17 3.82L1.17 13.15L4.32 13.15C7.57 13.15 9.35 11.10 9.35 8.47C9.35 5.86 7.57 3.82 4.32 3.82ZM4.08 11.94L2.65 11.94L2.65 5.03L4.08 5.03C6.58 5.03 7.80 6.39 7.80 8.47C7.80 10.57 6.58 11.94 4.08 11.94ZM14.12 13.34C15.93 13.34 17.63 12.57 17.63 10.60C17.63 9.04 16.39 8.33 15.02 7.85C13.46 7.28 12.57 6.90 12.57 6.14C12.57 5.40 13.29 4.87 14.23 4.87C15.04 4.87 15.69 5.12 16.38 5.69L17.34 4.71C16.60 4.08 15.71 3.59 14.09 3.59C12.45 3.59 11.03 4.62 11.03 6.17C11.03 7.86 12.57 8.44 14.10 8.98C15.12 9.36 16.06 9.76 16.06 10.69C16.06 11.61 15.09 12.06 14.07 12.06C12.91 12.06 12.13 11.74 11.45 10.89L10.40 11.91C11.23 12.85 12.35 13.34 14.12 13.34Z"></path></g><!----><!----></svg>